<svg width="6" height="12" viewBox="0 0 6 12" fill="none" xmlns="http://www.w3.org/2000/svg">
<g clip-path="url(#clip0_9715_45851)">
<path d="M5.89291 4.14033L3.33339 1.15342C3.29213 1.1053 3.24095 1.06667 3.18337 1.04019C3.12578 1.01371 3.06314 1 2.99976 1C2.93637 1 2.87374 1.01371 2.81615 1.04019C2.75857 1.06667 2.70739 1.1053 2.66613 1.15342L0.106607 4.14033C-0.137663 4.42543 0.0648579 4.86582 0.440235 4.86582H5.56002C5.93539 4.86582 6.13791 4.42543 5.89291 4.14033Z" fill="#92A2AE"/>
</g>
<g clip-path="url(#clip1_9715_45851)">
<path d="M0.10709 7.72549L2.66661 10.7124C2.70787 10.7605 2.75905 10.7991 2.81663 10.8256C2.87422 10.8521 2.93686 10.8658 3.00024 10.8658C3.06363 10.8658 3.12626 10.8521 3.18385 10.8256C3.24144 10.7991 3.29261 10.7605 3.33387 10.7124L5.89339 7.72549C6.13766 7.44038 5.93514 7 5.55976 7H0.439985C0.0646082 7 -0.137912 7.44038 0.10709 7.72549Z" fill="#92A2AE"/>
</g>
<defs>
<clipPath id="clip0_9715_45851">
<rect width="6" height="6" fill="white"/>
</clipPath>
<clipPath id="clip1_9715_45851">
<rect width="6" height="6" fill="white" transform="translate(0 6)"/>
</clipPath>
</defs>
</svg>
